<?xml version="1.0" encoding="UTF-8"?>
<svg width="27px" height="27px" viewBox="0 0 27 27" version="1.1" xmlns="http://www.w3.org/2000/svg" xmlns:xlink="http://www.w3.org/1999/xlink">
    <title>Fav</title>
    <g id="Page-1" stroke="none" stroke-width="1" fill="none" fill-rule="evenodd">
        <g id="Desktop-HD" transform="translate(-619.000000, -680.000000)">
            <g id="Courses" transform="translate(194.000000, 412.000000)">
                <g id="Course-cooking" transform="translate(406.000000, 22.000000)">
                    <g id="Fav" transform="translate(19.461538, 246.230769)">
                        <g id="ic-round-favorite-border" transform="translate(4.008097, 4.008097)" fill-rule="nonzero">
                            <g id="Icon" transform="translate(1.447368, 2.171053)" fill="#41B883">
                                <path d="M12.7802632,0.716447368 C10.8697368,-0.586184211 8.51052632,0.0217105263 7.23684211,1.5125 C5.96315789,0.0217105263 3.60394737,-0.593421053 1.69342105,0.716447368 C0.680263158,1.41118421 0.0434210526,2.58355263 -5.40973516e-15,3.82105263 C-0.101315789,6.62894737 2.38815789,8.87960526 6.1875,12.3315789 L6.25986842,12.3967105 C6.80986842,12.8960526 7.65657895,12.8960526 8.20657895,12.3894737 L8.28618421,12.3171053 C12.0855263,8.87236842 14.5677632,6.62171053 14.4736842,3.81381579 C14.4302632,2.58355263 13.7934211,1.41118421 12.7802632,0.716447368 L12.7802632,0.716447368 Z M7.30921053,11.2532895 L7.23684211,11.3256579 L7.16447368,11.2532895 C3.71973684,8.13421053 1.44736842,6.07171053 1.44736842,3.98026316 C1.44736842,2.53289474 2.53289474,1.44736842 3.98026316,1.44736842 C5.09473684,1.44736842 6.18026316,2.16381579 6.56381579,3.15526316 L7.91710526,3.15526316 C8.29342105,2.16381579 9.37894737,1.44736842 10.4934211,1.44736842 C11.9407895,1.44736842 13.0263158,2.53289474 13.0263158,3.98026316 C13.0263158,6.07171053 10.7539474,8.13421053 7.30921053,11.2532895 Z" id="Icon-Shape"></path>
                            </g>
                            <rect id="ViewBox" x="0" y="0" width="17.3684211" height="17.3684211"></rect>
                        </g>
                        <rect id="Rectangle" stroke="#41B883" stroke-width="0.846153846" x="0.423076923" y="0.423076923" width="24.5384615" height="24.5384615" rx="5.34412955"></rect>
                    </g>
                </g>
            </g>
        </g>
    </g>
</svg>