<?xml version="1.0" encoding="UTF-8"?>
<svg width="17px" height="17px" viewBox="0 0 17 17" version="1.1" xmlns="http://www.w3.org/2000/svg" xmlns:xlink="http://www.w3.org/1999/xlink">
    <title>icon-trash</title>
    <g id="Page-1" stroke="none" stroke-width="1" fill="none" fill-rule="evenodd">
        <g id="Desktop-HD" transform="translate(-1258.000000, -160.000000)" fill-rule="nonzero">
            <g id="Cart" transform="translate(923.000000, 106.000000)">
                <g id="Course-dev-cart" transform="translate(18.000000, 40.000000)">
                    <g id="icon-trash" transform="translate(317.000000, 14.000000)">
                        <g id="Icon" transform="translate(1.062500, 0.000000)" fill="#B84141">
                            <g id="Icon-Group">
                                <path d="M1.59375,1.0625 C1.00694745,1.0625 0.53125,1.53819745 0.53125,2.125 L0.53125,3.1875 C0.53125,3.77430255 1.00694745,4.25 1.59375,4.25 L2.125,4.25 L2.125,13.8125 C2.125,14.9861051 3.07639491,15.9375 4.25,15.9375 L10.625,15.9375 C11.7986051,15.9375 12.75,14.9861051 12.75,13.8125 L12.75,4.25 L13.28125,4.25 C13.8680525,4.25 14.34375,3.77430255 14.34375,3.1875 L14.34375,2.125 C14.34375,1.53819745 13.8680525,1.0625 13.28125,1.0625 L9.5625,1.0625 C9.5625,0.475697453 9.08680255,0 8.5,0 L6.375,0 C5.78819745,0 5.3125,0.475697453 5.3125,1.0625 L1.59375,1.0625 Z M4.78125,5.3125 C5.07465127,5.3125 5.3125,5.55034873 5.3125,5.84375 L5.3125,13.28125 C5.3125,13.5746513 5.07465127,13.8125 4.78125,13.8125 C4.48784873,13.8125 4.25,13.5746513 4.25,13.28125 L4.25,5.84375 C4.25,5.55034873 4.48784873,5.3125 4.78125,5.3125 Z M7.4375,5.3125 C7.73090127,5.3125 7.96875,5.55034873 7.96875,5.84375 L7.96875,13.28125 C7.96875,13.5746513 7.73090127,13.8125 7.4375,13.8125 C7.14409873,13.8125 6.90625,13.5746513 6.90625,13.28125 L6.90625,5.84375 C6.90625,5.55034873 7.14409873,5.3125 7.4375,5.3125 Z M10.09375,5.3125 C10.3871513,5.3125 10.625,5.55034873 10.625,5.84375 L10.625,5.84375 L10.625,13.28125 C10.625,13.5746513 10.3871513,13.8125 10.09375,13.8125 C9.80034873,13.8125 9.5625,13.5746513 9.5625,13.28125 L9.5625,13.28125 L9.5625,5.84375 C9.5625,5.55034873 9.80034873,5.3125 10.09375,5.3125 Z" id="Icon-Shape"></path>
                            </g>
                        </g>
                        <rect id="ViewBox" x="0" y="0" width="17" height="17"></rect>
                    </g>
                </g>
            </g>
        </g>
    </g>
</svg>