<?xml version="1.0" encoding="UTF-8"?>
<svg width="41px" height="44px" viewBox="0 0 41 44" version="1.1" xmlns="http://www.w3.org/2000/svg" xmlns:xlink="http://www.w3.org/1999/xlink">
    <title>Icon</title>
    <defs>
        <filter x="-4.8%" y="-29.3%" width="109.6%" height="158.5%" filterUnits="objectBoundingBox" id="filter-1">
            <feOffset dx="0" dy="2" in="SourceAlpha" result="shadowOffsetOuter1"></feOffset>
            <feGaussianBlur stdDeviation="2" in="shadowOffsetOuter1" result="shadowBlurOuter1"></feGaussianBlur>
            <feColorMatrix values="0 0 0 0 0   0 0 0 0 0   0 0 0 0 0  0 0 0 0.2 0" type="matrix" in="shadowBlurOuter1" result="shadowMatrixOuter1"></feColorMatrix>
            <feMerge>
                <feMergeNode in="shadowMatrixOuter1"></feMergeNode>
                <feMergeNode in="SourceGraphic"></feMergeNode>
            </feMerge>
        </filter>
    </defs>
    <g id="Page-1" stroke="none" stroke-width="1" fill="none" fill-rule="evenodd">
        <g id="Desktop-HD" transform="translate(-1185.000000, -607.000000)" fill="#41b883" fill-rule="nonzero">
            <g id="Cart" transform="translate(923.000000, 106.000000)">
                <g id="Continue" filter="url(#filter-1)" transform="translate(67.000000, 503.000000)">
                    <g id="Group" transform="translate(18.000000, 3.000000)">
                        <g id="icon-shopify" transform="translate(181.000000, 0.000000)">
                            <g id="Icon" transform="translate(5.000000, 4.000000)">
                                <path d="M15.286,25.3118 L22.8194,23.6794 C22.8194,23.6794 20.102,5.2862 20.0796,5.1644 C20.0572,5.044 19.9592,4.9628 19.8584,4.9628 C19.7576,4.9628 17.8438,4.8214 17.8438,4.8214 C17.8438,4.8214 16.5152,3.4928 16.3542,3.3514 C16.3164,3.3108 16.2744,3.2912 16.2338,3.2702 L15.286,25.3118 Z M15.9104,3.231 C15.888,3.231 15.8502,3.2506 15.8306,3.2506 C15.8082,3.2506 15.5268,3.3332 15.0844,3.4718 C14.6392,2.1852 13.8538,0.9966 12.465,0.9966 L12.3446,0.9966 C11.94,0.4912 11.4584,0.27 11.0342,0.27 C7.7918,0.27 6.2378,4.3188 5.7562,6.3726 C4.5074,6.7576 3.603,7.039 3.498,7.0796 C2.7924,7.3008 2.7742,7.3204 2.6944,7.9868 C2.6146,8.4684 0.7806,22.6714 0.7806,22.6714 L14.9444,25.33 L15.9104,3.231 L15.9104,3.231 Z M12.2214,4.2166 L12.2214,4.3594 C11.4388,4.6016 10.5722,4.8634 9.7252,5.1252 C10.2096,3.273 11.114,2.3644 11.8994,2.0214 C12.1038,2.5464 12.2214,3.2506 12.2214,4.2166 L12.2214,4.2166 Z M10.9334,1.1366 C11.0734,1.1366 11.2148,1.1758 11.3576,1.2794 C10.3328,1.761 9.203,2.9902 8.7382,5.4486 C8.0822755,5.65841161 7.42375753,5.86002731 6.7628,6.0534 C7.3074,4.1788 8.6178,1.1366 10.9334,1.1366 L10.9334,1.1366 Z M11.4962,12.0734 C11.4962,12.0734 10.6506,11.6324 9.6454,11.6324 C8.1334,11.6324 8.0732,12.5788 8.0732,12.821 C8.0732,14.1104 11.4584,14.613 11.4584,17.6552 C11.4584,20.052 9.9464,21.5836 7.8926,21.5836 C5.4342,21.5836 4.1854,20.052 4.1854,20.052 L4.8504,17.8764 C4.8504,17.8764 6.1412,18.9852 7.2262,18.9852 C7.48950786,18.995849 7.74581981,18.8989318 7.93620676,18.7167307 C8.1265937,18.5345296 8.23467446,18.2827215 8.2356,18.0192 C8.2356,16.3266 5.4552,16.244 5.4552,13.4664 C5.4552,11.1298 7.1282,8.8534 10.533,8.8534 C11.8434,8.8534 12.486,9.2342 12.486,9.2342 L11.4962,12.0734 L11.4962,12.0734 Z M12.787,1.88 C13.5122,1.964 13.977,2.7872 14.2766,3.7154 C13.9154,3.8372 13.5108,3.9576 13.0684,4.0976 L13.0684,3.8358 C13.0684,3.0504 12.9676,2.405 12.787,1.88 L12.787,1.88 Z" id="Icon-Shape"></path>
                            </g>
                        </g>
                    </g>
                </g>
            </g>
        </g>
    </g>
</svg>