<svg width="16" height="14" viewBox="0 0 15 14" fill="none" xmlns="http://www.w3.org/2000/svg"><path d="M13.243.743c-1.98-1.35-4.423-.72-5.743.824C6.18.023 3.737-.614 1.757.743A4.102 4.102 0 0 0 .003 3.959c-.105 2.909 2.474 5.24 6.41 8.817l.075.067c.57.517 1.447.517 2.017-.007l.082-.075c3.936-3.569 6.508-5.9 6.41-8.81A4.1 4.1 0 0 0 13.243.743ZM7.575 11.658l-.075.075-.075-.075c-3.568-3.23-5.922-5.367-5.922-7.534 0-1.5 1.124-2.624 2.623-2.624 1.155 0 2.28.742 2.677 1.77h1.402c.39-1.028 1.514-1.77 2.669-1.77 1.5 0 2.624 1.124 2.624 2.624 0 2.167-2.354 4.303-5.923 7.535Z" fill="#5E7286"/></svg>