<?xml version="1.0" encoding="UTF-8"?>
<svg width="27px" height="27px" viewBox="0 0 27 27" version="1.1" xmlns="http://www.w3.org/2000/svg" xmlns:xlink="http://www.w3.org/1999/xlink">
    <title>Fav</title>
    <g id="Page-1" stroke="none" stroke-width="1" fill="none" fill-rule="evenodd">
        <g id="Desktop-HD" transform="translate(-619.000000, -680.000000)">
            <g id="Courses" transform="translate(194.000000, 412.000000)">
                <g id="Course-cooking" transform="translate(406.000000, 22.000000)">
                    <g id="Fav" transform="translate(19.461538, 246.230769)">
                        <g id="ic-round-favorite-border" transform="translate(4.008097, 4.008097)" fill-rule="nonzero">
                            <g id="Icon" transform="translate(1.447368, 2.171053)" fill="#41B883">
                                <path d="M1.69342105,0.716447368 C3.60394737,-0.593421053 5.96315789,0.0217105263 7.23684211,1.5125 C8.51052632,0.0217105263 10.8697368,-0.586184211 12.7802632,0.716447368 C13.7934211,1.41118421 14.4302632,2.58355263 14.4736842,3.81381579 C14.5677632,6.62171053 12.0855263,8.87236842 8.28618421,12.3171053 L8.28618421,12.3171053 L8.20657895,12.3894737 C7.65657895,12.8960526 6.80986842,12.8960526 6.25986842,12.3967105 L6.25986842,12.3967105 L6.1875,12.3315789 C2.38815789,8.87960526 -0.101315789,6.62894737 2.58651607e-14,3.82105263 C0.0434210526,2.58355263 0.680263158,1.41118421 1.69342105,0.716447368 Z" id="Icon-Shape"></path>
                            </g>
                            <rect id="ViewBox" x="0" y="0" width="17.3684211" height="17.3684211"></rect>
                        </g>
                        <rect id="Rectangle" stroke="#41B883" stroke-width="0.846153846" x="0.423076923" y="0.423076923" width="24.5384615" height="24.5384615" rx="5.34412955"></rect>
                    </g>
                </g>
            </g>
        </g>
    </g>
</svg>