<?xml version="1.0" encoding="UTF-8"?>
<svg width="26px" height="26px" viewBox="0 0 26 26" version="1.1" xmlns="http://www.w3.org/2000/svg" xmlns:xlink="http://www.w3.org/1999/xlink">
    <title>eva-shopping-cart-outline</title>
    <g id="Page-1" stroke="none" stroke-width="1" fill="none" fill-rule="evenodd">
        <g id="Desktop-HD" transform="translate(-1172.000000, -127.000000)" fill-rule="nonzero">
            <g id="Cart" transform="translate(923.000000, 107.000000)">
                <g id="Group-2" transform="translate(111.000000, 20.000000)">
                    <g id="eva-shopping-cart-outline" transform="translate(138.000000, 0.000000)">
                        <g id="Icon" transform="translate(2.000000, 3.000000)" fill="#FFFFFF">
                            <g id="Icon-Group" transform="translate(0.166667, 0.250000)">
                                <path d="M20.67,4.33333333 C20.2892282,3.67358921 19.5899757,3.2622642 18.8283333,3.25 L4.96166667,3.25 L4.33333333,0.801666667 C4.20261385,0.31501392 3.75360788,-0.0172504969 3.25,-2.22044605e-16 L1.08333333,-2.22044605e-16 C0.485024854,-2.22044605e-16 0,0.485024854 0,1.08333333 C0,1.68164181 0.485024854,2.16666667 1.08333333,2.16666667 L2.42666667,2.16666667 L5.41666667,13.2816667 C5.54738615,13.7683194 5.99639212,14.1005838 6.5,14.0833333 L16.25,14.0833333 C16.6579381,14.0820969 17.0305956,13.851803 17.2141667,13.4875 L20.7675,6.38083333 C21.0803187,5.72514854 21.0437081,4.95632638 20.67,4.33333333 Z M15.5783333,11.9166667 L7.32333333,11.9166667 L5.5575,5.41666667 L18.8283333,5.41666667 L15.5783333,11.9166667 Z" id="Icon-Shape"></path>
                                <circle id="Icon-Oval" cx="5.95833333" cy="17.875" r="1.625"></circle>
                                <circle id="Icon-Oval" cx="16.7916667" cy="17.875" r="1.625"></circle>
                            </g>
                        </g>
                        <rect id="ViewBox" x="0" y="0" width="26" height="26"></rect>
                    </g>
                </g>
            </g>
        </g>
    </g>
</svg>