<?xml version="1.0" encoding="UTF-8"?>
<svg width="30px" height="31px" viewBox="0 0 30 31" version="1.1" xmlns="http://www.w3.org/2000/svg" xmlns:xlink="http://www.w3.org/1999/xlink">
    <title>whh-shoppingcart</title>
    <g id="Page-1" stroke="none" stroke-width="1" fill="none" fill-rule="evenodd">
        <g id="Desktop-HD" transform="translate(-1262.000000, -55.000000)" fill-rule="nonzero">
            <g id="Header" transform="translate(79.000000, 46.000000)">
                <g id="whh-shoppingcart" transform="translate(1183.000000, 9.000000)">
                    <g id="Icon" transform="translate(0.000000, 0.146341)" fill="#35495E">
                        <g id="Icon-Group" transform="translate(15.000000, 15.000000) scale(-1, 1) translate(-15.000000, -15.000000) ">
                            <path d="M28.1268293,3.74634146 L25.902439,3.74634146 L22.3317073,21.1609756 C22.2341463,21.5317073 22.0243902,21.8439024 21.702439,22.097561 C21.3804878,22.3512195 21.0439024,22.4780488 20.6926829,22.4780488 L4.68292683,22.4780488 C4.31219512,22.4780488 3.96585366,22.3512195 3.64390244,22.097561 C3.32195122,21.8439024 3.11219512,21.5317073 3.01463415,21.1609756 L0.146341463,10.1268293 C-0.0487804878,9.42439024 -0.0195121951,8.8097561 0.234146341,8.28292683 C0.487804878,7.75609756 0.87804878,7.49268293 1.40487805,7.49268293 L22.1560976,3.89268293 L22.6829268,1.28780488 C22.7804878,0.936585366 22.9902439,0.634146341 23.3121951,0.380487805 C23.6341463,0.126829268 23.9707317,0 24.3219512,0 L28.1268293,0 C28.6536585,0 29.097561,0.180487805 29.4585366,0.541463415 C29.8195122,0.902439024 30,1.34146341 30,1.85853659 C30,2.37560976 29.8146341,2.8195122 29.4439024,3.1902439 C29.0731707,3.56097561 28.6341463,3.74634146 28.1268293,3.74634146 Z M8.45853659,24.3512195 C9.23902439,24.3512195 9.90243902,24.6243902 10.4487805,25.1707317 C10.995122,25.7170732 11.2682927,26.3804878 11.2682927,27.1609756 C11.2682927,27.9414634 10.995122,28.604878 10.4487805,29.1512195 C9.90243902,29.697561 9.23902439,29.9707317 8.45853659,29.9707317 C7.67804878,29.9707317 7.01463415,29.697561 6.46829268,29.1512195 C5.92195122,28.604878 5.64878049,27.9414634 5.64878049,27.1609756 C5.64878049,26.3804878 5.92195122,25.7170732 6.46829268,25.1707317 C7.01463415,24.6243902 7.67804878,24.3512195 8.45853659,24.3512195 Z M17.8243902,24.3512195 C18.604878,24.3512195 19.2682927,24.6243902 19.8146341,25.1707317 C20.3609756,25.7170732 20.6341463,26.3804878 20.6341463,27.1609756 C20.6341463,27.9414634 20.3609756,28.604878 19.8146341,29.1512195 C19.2682927,29.697561 18.604878,29.9707317 17.8243902,29.9707317 C17.0439024,29.9707317 16.3804878,29.697561 15.8341463,29.1512195 C15.2878049,28.604878 15.0146341,27.9414634 15.0146341,27.1609756 C15.0146341,26.3804878 15.2878049,25.7170732 15.8341463,25.1707317 C16.3804878,24.6243902 17.0439024,24.3512195 17.8243902,24.3512195 Z" id="Icon-Shape"></path>
                        </g>
                    </g>
                    <rect id="ViewBox" x="0" y="0" width="30" height="29.9707317"></rect>
                </g>
            </g>
        </g>
    </g>
</svg>