<?xml version="1.0" encoding="UTF-8"?>
<svg width="59px" height="13px" viewBox="0 0 59 13" version="1.1" xmlns="http://www.w3.org/2000/svg" xmlns:xlink="http://www.w3.org/1999/xlink">
    <title>Stars</title>
    <defs>
        <linearGradient x1="50%" y1="0%" x2="50%" y2="75.8605957%" id="linearGradient-1">
            <stop stop-color="#F7F359" offset="0%"></stop>
            <stop stop-color="#ECE42D" offset="100%"></stop>
        </linearGradient>
        <linearGradient x1="50%" y1="0%" x2="50%" y2="75.8605957%" id="linearGradient-2">
            <stop stop-color="#F7F359" offset="0%"></stop>
            <stop stop-color="#ECE42D" offset="100%"></stop>
        </linearGradient>
    </defs>
    <g id="Page-1" stroke="none" stroke-width="1" fill="none" fill-rule="evenodd">
        <g id="Desktop-HD" transform="translate(-216.000000, -644.000000)">
            <g id="Courses" transform="translate(194.000000, 412.000000)">
                <g id="Course-dev">
                    <g id="Instructor" transform="translate(22.380769, 214.076923)">
                        <g id="Stars" transform="translate(0.000000, 18.488462)">
                            <polygon id="Star" fill="url(#linearGradient-1)" points="5.33192835 7.99789252 2.1978995 9.64554899 2.79644575 6.15575658 0.260963148 3.68427187 3.76491392 3.17511802 5.33192835 0 6.89894277 3.17511802 10.4028935 3.68427187 7.86741094 6.15575658 8.46595719 9.64554899"></polygon>
                            <polygon id="Star-Copy" fill="url(#linearGradient-1)" points="17.9952582 7.99789252 14.8612293 9.64554899 15.4597756 6.15575658 12.924293 3.68427187 16.4282437 3.17511802 17.9952582 0 19.5622726 3.17511802 23.0662234 3.68427187 20.5307408 6.15575658 21.129287 9.64554899"></polygon>
                            <polygon id="Star-Copy-2" fill="url(#linearGradient-1)" points="30.658588 7.99789252 27.5245591 9.64554899 28.1231054 6.15575658 25.5876228 3.68427187 29.0915736 3.17511802 30.658588 0 32.2256024 3.17511802 35.7295532 3.68427187 33.1940706 6.15575658 33.7926168 9.64554899"></polygon>
                            <polygon id="Star-Copy-3" fill="url(#linearGradient-1)" points="43.3219178 7.99789252 40.187889 9.64554899 40.7864352 6.15575658 38.2509526 3.68427187 41.7549034 3.17511802 43.3219178 0 44.8889322 3.17511802 48.392883 3.68427187 45.8574004 6.15575658 46.4559467 9.64554899"></polygon>
                            <path d="M55.7242845,7.10355554e-15 L57.2233193,3.039 L57.2233193,8.786 L55.7242845,7.99789252 L52.5902556,9.64554899 L53.1888019,6.15575658 L50.6533193,3.68427187 L54.1572701,3.17511802 L55.7242845,7.10355554e-15 Z" id="Combined-Shape-Copy-2" fill="url(#linearGradient-2)"></path>
                        </g>
                    </g>
                </g>
            </g>
        </g>
    </g>
</svg>