<svg width="13" height="15" viewBox="0 0 13 15" fill="none" xmlns="http://www.w3.org/2000/svg">
<path d="M3.77232 0.518262C3.92299 0.200625 4.2327 0 4.57031 0H7.92969C8.2673 0 8.57701 0.200625 8.72768 0.518262L8.92857 0.9375H11.6071C12.101 0.9375 12.5 1.35732 12.5 1.875C12.5 2.39268 12.101 2.8125 11.6071 2.8125H0.892857C0.399833 2.8125 0 2.39268 0 1.875C0 1.35732 0.399833 0.9375 0.892857 0.9375H3.57143L3.77232 0.518262ZM11.0156 13.6553C10.971 14.4229 10.3878 15 9.67913 15H2.82087C2.11356 15 1.52818 14.4229 1.4841 13.6553L0.867746 3.75H11.6071L11.0156 13.6553Z" fill="#5E7286"/>
</svg>
