<svg width="28" height="28" fill="none" xmlns="http://www.w3.org/2000/svg"><path d="M27.179 12.233a2.128 2.128 0 0 0-1.804-.417 3.22 3.22 0 0 1-3.944-3.109 2.153 2.153 0 0 0-2.14-2.14 3.218 3.218 0 0 1-3.11-3.943A2.166 2.166 0 0 0 14.08 0H14A14.016 14.016 0 0 0 1.042 8.708 13.995 13.995 0 0 0 14.087 28a14.003 14.003 0 0 0 12.88-8.721A13.992 13.992 0 0 0 28 13.916a2.113 2.113 0 0 0-.821-1.683ZM6.933 10.162a1.616 1.616 0 1 1 2.28 2.289 1.616 1.616 0 0 1-2.28-2.29Zm3.365 9.824a1.616 1.616 0 1 1-2.28-2.289 1.616 1.616 0 0 1 2.28 2.29Zm3.635-5.383a1.614 1.614 0 0 1 1.144-2.755 1.615 1.615 0 1 1-1.144 2.755Zm4.98 6.46a1.616 1.616 0 1 1-2.28-2.29 1.616 1.616 0 0 1 2.28 2.29Z" fill="#41B883"/></svg>