<svg width="22" height="28" fill="none" xmlns="http://www.w3.org/2000/svg"><path d="M19.32 0H2.147C1.577 0 1.03.227.629.63A2.158 2.158 0 0 0 0 2.155v23.692c0 .571.226 1.12.629 1.523.402.404.948.631 1.518.631H19.32c.57 0 1.115-.227 1.518-.63.402-.405.629-.953.629-1.524V2.154c0-.571-.226-1.12-.63-1.523A2.143 2.143 0 0 0 19.32 0Zm0 2.154v6.461H2.147V2.154H19.32ZM2.147 17.23v-6.462H19.32v6.462H2.147Zm0 8.615v-6.461H19.32v6.461H2.147Z" fill="#41B883"/><path d="M5.133 7.108a1.4 1.4 0 1 0 0-2.8 1.4 1.4 0 0 0 0 2.8ZM5.133 14.933a1.4 1.4 0 1 0 0-2.8 1.4 1.4 0 0 0 0 2.8ZM5.133 24.267a1.4 1.4 0 1 0 0-2.8 1.4 1.4 0 0 0 0 2.8Z" fill="#41B883"/></svg>