<svg width="30" height="29" fill="none" xmlns="http://www.w3.org/2000/svg"><path opacity=".4" d="M15 0C6.713 0 0 6.6 0 14.74c0 6.514 4.298 12.037 10.256 13.985.75.139 1.025-.318 1.025-.709 0-.35-.012-1.277-.019-2.506-4.172.889-5.052-1.978-5.052-1.978-.683-1.7-1.669-2.156-1.669-2.156-1.359-.914.105-.895.105-.895C6.152 20.584 6.944 22 6.944 22c1.337 2.254 3.511 1.602 4.369 1.226.134-.953.52-1.602.95-1.971-3.332-.369-6.833-1.636-6.833-7.284 0-1.608.581-2.924 1.544-3.955-.169-.372-.675-1.871.131-3.901 0 0 1.256-.395 4.125 1.511 1.2-.327 2.475-.49 3.75-.497 1.275.007 2.55.17 3.75.497 2.85-1.906 4.106-1.511 4.106-1.511.806 2.03.3 3.529.15 3.901.956 1.031 1.538 2.347 1.538 3.955 0 5.663-3.507 6.909-6.844 7.271.525.443 1.012 1.347 1.012 2.728 0 1.973-.018 3.558-.018 4.036 0 .386.262.848 1.031.7C25.706 26.771 30 21.244 30 14.74 30 6.6 23.284 0 15 0Z" fill="#18232E"/></svg>