<svg width="24" height="24" fill="none" xmlns="http://www.w3.org/2000/svg"><path d="m17.65 11.344 2.094-2.093-5-5-2.092 2.093L7.132.838a2.671 2.671 0 0 0-3.772 0L.827 3.371a2.671 2.671 0 0 0 0 3.773l5.505 5.506L0 18.996v5h5l6.345-6.347 5.506 5.506c1.267 1.267 2.973.8 3.773 0l2.533-2.533a2.671 2.671 0 0 0 0-3.773l-5.506-5.505Zm-9.411-.587-5.52-5.506 2.52-2.533 1.693 1.693L5.36 5.998l1.88 1.88L8.825 6.29l1.934 1.933-2.52 2.533Zm10.505 10.519-5.506-5.506 2.533-2.533 1.933 1.933-1.586 1.586 1.88 1.88 1.586-1.587 1.693 1.694-2.533 2.533ZM23.61 5.384c.52-.52.52-1.36 0-1.88L20.49.386c-.626-.626-1.493-.386-1.88 0l-2.439 2.44 5 5 2.44-2.44Z" fill="#41B883"/></svg>