<svg width="28" height="26" fill="none" xmlns="http://www.w3.org/2000/svg"><path d="M16.546 20.77a8.985 8.985 0 0 1-3.462-2.952H2.545V2.545h22.91v2.877A9.01 9.01 0 0 1 28 8.158V2.545A2.545 2.545 0 0 0 25.454 0H2.546A2.545 2.545 0 0 0 0 2.545v15.273a2.545 2.545 0 0 0 2.545 2.546h8.91v2.545H8.909v2.546h10.182v-2.546h-2.546v-2.138Z" fill="#41B883"/><path d="M20.364 5.09a7.636 7.636 0 1 0 0 15.274 7.636 7.636 0 0 0 0-15.273Zm0 9.546a1.91 1.91 0 1 1 0-3.818 1.91 1.91 0 0 1 0 3.818Z" fill="#41B883"/></svg>