<svg width="24" height="24" fill="none" xmlns="http://www.w3.org/2000/svg"><circle cx="12" cy="12" r="12" fill="#fff"/><g opacity=".3" fill="#18232E"><path d="M12 8.5a3.5 3.5 0 1 0 0 7 3.5 3.5 0 0 0 0-7Z"/><path fill-rule="evenodd" clip-rule="evenodd" d="M12 5a.636.636 0 0 1 .636.636v.637a.637.637 0 0 1-1.272 0v-.637A.637.637 0 0 1 12 5ZM6.46 6.46a.636.636 0 0 1 .899 0l.955.954a.636.636 0 0 1-.9.9l-.955-.955a.636.636 0 0 1 0-.9Zm11.08 0a.636.636 0 0 1 0 .899l-.954.955a.636.636 0 1 1-.9-.9l.955-.955a.636.636 0 0 1 .9 0ZM5 12a.636.636 0 0 1 .636-.636h.637a.637.637 0 0 1 0 1.272h-.637A.637.637 0 0 1 5 12Zm12.09 0a.637.637 0 0 1 .637-.636h.637a.636.636 0 0 1 0 1.272h-.637a.636.636 0 0 1-.636-.636Zm-8.776 3.687a.636.636 0 0 1 0 .9l-.955.954a.636.636 0 0 1-.9-.9l.955-.954a.636.636 0 0 1 .9 0Zm7.373 0a.636.636 0 0 1 .9 0l.954.954a.636.636 0 0 1-.9.9l-.954-.955a.637.637 0 0 1 0-.9ZM12 17.09a.637.637 0 0 1 .636.636v.637a.636.636 0 0 1-1.272 0v-.637a.636.636 0 0 1 .636-.636Z"/></g></svg>